<svg width="22" height="19" viewBox="0 0 22 19" fill="none" xmlns="http://www.w3.org/2000/svg">
<path fill-rule="evenodd" clip-rule="evenodd" d="M0 0.75C0 0.335787 0.335786 0 0.75 0H5.00806C7.77394 0 10.0161 2.24219 10.0161 5.00807C10.0161 6.80611 9.06857 8.38283 7.64558 9.26613C9.06857 10.1494 10.0161 11.7262 10.0161 13.5242C10.0161 16.2901 7.77394 18.5323 5.00806 18.5323H0.75C0.335786 18.5323 0 18.1965 0 17.7823V9.26613V0.75ZM1.5 10.0161V17.0323H5.00806C6.94552 17.0323 8.51613 15.4616 8.51613 13.5242C8.51613 11.5867 6.94552 10.0161 5.00806 10.0161C5.00726 10.0161 5.00645 10.0161 5.00565 10.0161H1.5ZM5.01026 8.51613C6.9467 8.51495 8.51613 6.94478 8.51613 5.00807C8.51613 3.07061 6.94552 1.5 5.00806 1.5H1.5V8.51613L5.00806 8.51613C5.0088 8.51613 5.00953 8.51613 5.01026 8.51613ZM11.3548 13.5218C11.3561 10.757 13.5978 8.51613 16.3629 8.51613C19.1288 8.51613 21.371 10.7583 21.371 13.5242C21.371 13.9384 21.0352 14.2742 20.621 14.2742H12.9358C13.1849 15.4129 13.9914 16.3735 15.1111 16.8012C16.4699 17.3202 18.0079 16.9469 18.9776 15.8629C19.2537 15.5542 19.7279 15.5278 20.0366 15.8039C20.3453 16.0801 20.3717 16.5542 20.0956 16.8629C18.7113 18.4105 16.5156 18.9434 14.5759 18.2025C12.6362 17.4616 11.3549 15.6006 11.3548 13.5242C11.3548 13.5242 11.3548 13.5242 11.3548 13.5242M19.7906 12.7742C19.4471 11.1971 18.0429 10.0161 16.3629 10.0161C14.6829 10.0161 13.2787 11.1971 12.9352 12.7742H19.7906ZM13.5242 5.67742C13.11 5.67742 12.7742 6.01321 12.7742 6.42742C12.7742 6.84163 13.11 7.17742 13.5242 7.17742H19.2016C19.6158 7.17742 19.9516 6.84163 19.9516 6.42742C19.9516 6.01321 19.6158 5.67742 19.2016 5.67742H13.5242Z" fill="white"/>
</svg>
