<svg width="22" height="22" viewBox="0 0 22 22" fill="none" xmlns="http://www.w3.org/2000/svg">
<path fill-rule="evenodd" clip-rule="evenodd" d="M9.48634 1.63401C11.786 1.26298 14.2076 1.73906 16.2547 3.10106C16.4059 3.20172 16.5535 3.30613 16.6974 3.4141C15.8143 5.48879 14.2261 7.16654 12.2381 8.16675C11.3396 5.55238 10.3183 3.25753 9.48634 1.63401ZM7.9757 2.00679C6.74471 2.42023 5.58513 3.09128 4.5815 4.01335C3.56288 4.94919 2.7883 6.06699 2.27212 7.27923C4.5868 9.02 7.58164 9.61187 10.3988 8.8635L10.8162 10.3175C7.70566 11.153 4.40544 10.5777 1.77531 8.78348C1.23848 11.0202 1.51586 13.4395 2.68516 15.5678C3.08468 16.295 3.56872 16.9526 4.11966 17.5329C5.50099 14.6632 8.07153 12.5138 11.1835 11.68C11.3561 11.6338 11.5292 11.5918 11.7028 11.5543C11.5757 11.0895 11.4416 10.6294 11.302 10.1757C11.1418 10.2265 10.98 10.2738 10.8167 10.3174L10.3992 8.86339C10.4077 8.86112 10.4162 8.85885 10.4248 8.85656L10.4258 8.85629C10.5633 8.81953 10.6996 8.77979 10.8347 8.73713C10.2769 7.10515 9.66937 5.60139 9.09396 4.31802L8.39307 1.87724C8.39305 1.87725 8.39303 1.87726 8.393 1.87726L9.09338 4.31673C8.69662 3.43187 8.31512 2.65181 7.9757 2.00679ZM9.09338 4.31673L10.3988 8.8635C10.3989 8.86346 10.3991 8.86343 10.3992 8.86339L9.09396 4.31802C9.09377 4.31759 9.09358 4.31716 9.09338 4.31673ZM5.30244 18.5862C7.43799 20.1887 10.2035 20.8533 12.9204 20.2903C12.9921 17.9439 12.6455 15.4445 12.0761 13.0212C11.9085 13.0564 11.7414 13.0964 11.5749 13.141C8.74923 13.8981 6.44108 15.9129 5.30244 18.5862ZM13.8311 21.6285C13.8408 21.6261 13.8505 21.6235 13.8601 21.6207C17.3095 20.6938 20.0921 18.1482 21.3226 14.7974C21.3422 14.7555 21.3577 14.7124 21.3691 14.6684C22.9065 10.324 21.5638 5.5279 18.1078 2.6048C18.0979 2.59597 18.0877 2.58738 18.0772 2.57905C17.7658 2.31759 17.4374 2.07128 17.0925 1.8418C12.8756 -0.963846 7.28802 -0.52716 3.55821 2.89954C2.22329 4.12597 1.24987 5.62192 0.661996 7.24089C0.655418 7.25731 0.649445 7.27389 0.644075 7.29061C-0.390501 10.183 -0.19751 13.462 1.35953 16.2961C3.79595 20.7309 8.943 22.9307 13.8311 21.6285ZM17.8804 4.46713C16.7918 6.72973 14.9633 8.54425 12.7129 9.6184C12.887 10.1796 13.054 10.7531 13.2107 11.3357C15.6843 11.1508 18.1604 11.8082 20.2245 13.2153C20.9812 10.0723 20.0749 6.77755 17.8804 4.46713ZM19.7274 14.719C17.9505 13.3842 15.7739 12.7251 13.5842 12.8281C14.1164 15.133 14.459 17.5326 14.4415 19.841C16.8145 18.9188 18.7254 17.0746 19.7274 14.719Z" fill="white"/>
</svg>
