<svg width="185" height="39" viewBox="0 0 185 39" fill="none" xmlns="http://www.w3.org/2000/svg">
<g clip-path="url(#clip0_169_1349)">
<path d="M12.5444 35.508L24.6203 17.9816L12.5444 0.455231L0 17.9816L12.5444 35.508Z" fill="#0B79B8"/>
<path d="M13.4881 35.8529L25.3092 18.5886L43.1613 35.8529H13.4881Z" fill="#68C5EE"/>
<path d="M13.4261 0.220718L25.3712 17.3953L43.0958 0L13.4261 0.220718Z" fill="#129EDB"/>
<path d="M60.5897 29.5624C58.5059 29.5624 56.6907 29.0762 55.1476 28.1036C53.6011 27.1311 52.4059 25.7792 51.5552 24.0479C50.7044 22.3167 50.2808 20.3164 50.2808 18.0437V17.1505C50.2808 14.964 50.6906 13.0086 51.5138 11.2739C52.337 9.54261 53.5185 8.17347 55.065 7.16644C56.6081 6.15941 58.4508 5.6559 60.5932 5.6559C62.4497 5.6559 64.0754 5.96284 65.4738 6.56981C66.8688 7.18023 68.0433 8.01827 68.994 9.08048L69.1007 14.6157H65.8252L65.0984 10.5945C64.6162 10.0979 64.0134 9.70125 63.2901 9.40121C62.5668 9.10117 61.716 8.95288 60.7378 8.95288C59.491 8.95288 58.3957 9.32189 57.4519 10.0599C56.5082 10.7979 55.7745 11.7843 55.251 13.0189C54.7274 14.2536 54.4657 15.6296 54.4657 17.147V18.0403C54.4657 19.7163 54.7102 21.1682 55.1993 22.4029C55.6884 23.6375 56.3911 24.5928 57.3038 25.2653C58.2166 25.9378 59.305 26.2758 60.5656 26.2758C61.9813 26.2758 63.1592 25.8861 64.0961 25.1067C65.033 24.3273 65.6047 23.2547 65.8183 21.8925H69.5795L69.6208 22.0201C69.5485 23.3409 69.1593 24.5756 68.4498 25.724C67.7402 26.8724 66.731 27.8001 65.4222 28.5002C64.1168 29.2107 62.5048 29.5624 60.5897 29.5624Z" fill="black"/>
<path d="M77.8735 38.4153C77.5463 38.4153 77.1227 38.3774 76.5991 38.298C76.0756 38.2187 75.6691 38.1463 75.3867 38.0739L75.8104 34.7735C76.0515 34.801 76.3856 34.8252 76.8092 34.8493C77.2329 34.87 77.5257 34.8804 77.6807 34.8804C78.5727 34.8804 79.2995 34.5389 79.8609 33.8595C80.4224 33.1767 80.9425 32.249 81.4247 31.0695L82.4235 28.6416L74.2811 9.12187L71.8149 8.78044V6.07664H81.466V8.78044L78.6795 9.20463L83.1641 20.7199L84.249 23.7203H84.3765L89.6911 9.20463L86.7565 8.78044V6.07664H96.2182V8.78044L93.8381 9.12187L84.7829 32.6421C84.3593 33.7492 83.8426 34.739 83.2433 35.6115C82.644 36.484 81.9034 37.1703 81.032 37.6669C80.1606 38.1635 79.1066 38.4153 77.8735 38.4153Z" fill="black"/>
<path d="M108.084 29.5624C105.959 29.5624 104.126 29.0624 102.587 28.0622C101.047 27.0621 99.8623 25.6792 99.0253 23.91C98.1884 22.1442 97.7716 20.1233 97.7716 17.854V17.385C97.7716 15.1157 98.1884 13.0948 99.0253 11.329C99.8623 9.5633 101.047 8.17691 102.587 7.16644C104.123 6.15941 105.942 5.6559 108.039 5.6559C110.164 5.6559 111.997 6.15941 113.536 7.16644C115.073 8.17347 116.261 9.5564 117.098 11.3187C117.935 13.0775 118.352 15.1019 118.352 17.385V17.854C118.352 20.1405 117.935 22.1649 117.098 23.9307C116.261 25.6964 115.08 27.0794 113.547 28.0691C112.017 29.0658 110.195 29.5624 108.084 29.5624ZM108.084 26.2827C109.417 26.2827 110.533 25.9171 111.432 25.186C112.331 24.4549 113.013 23.4547 113.471 22.1856C113.933 20.9165 114.163 19.4715 114.163 17.854V17.385C114.163 15.7675 113.933 14.3225 113.471 13.0534C113.009 11.7843 112.327 10.7841 111.418 10.053C110.512 9.32189 109.383 8.95632 108.039 8.95632C106.706 8.95632 105.587 9.32189 104.681 10.053C103.775 10.7841 103.093 11.7843 102.642 13.0534C102.187 14.3225 101.96 15.7675 101.96 17.385V17.854C101.96 19.4715 102.187 20.9165 102.642 22.1856C103.097 23.4547 103.779 24.4549 104.695 25.186C105.611 25.9171 106.737 26.2827 108.084 26.2827Z" fill="black"/>
<path d="M129.449 29.5624C127.052 29.5624 125.233 28.9761 123.987 27.807C122.74 26.6379 122.116 24.986 122.116 22.8581C122.116 21.3959 122.516 20.1233 123.318 19.0369C124.118 17.9506 125.278 17.1056 126.794 16.5056C128.309 15.902 130.124 15.602 132.236 15.602H136.338V13.3465C136.338 11.9567 135.918 10.8773 135.074 10.1116C134.23 9.34603 133.045 8.96322 131.513 8.96322C130.548 8.96322 129.711 9.08048 129.005 9.31499C128.296 9.5495 127.651 9.87368 127.069 10.2841L126.622 13.4983H123.391V8.2114C124.424 7.37336 125.63 6.7388 127.004 6.30771C128.378 5.87662 129.904 5.65935 131.575 5.65935C134.368 5.65935 136.555 6.32495 138.143 7.65961C139.731 8.99426 140.523 10.9014 140.523 13.3845V24.4756C140.523 24.7722 140.526 25.0653 140.533 25.3481C140.54 25.6309 140.557 25.9171 140.585 26.1999L142.817 26.4344V29.1175H136.8C136.672 28.4933 136.572 27.9312 136.503 27.4346C136.435 26.938 136.383 26.4413 136.355 25.9447C135.546 26.9793 134.537 27.8415 133.324 28.5313C132.119 29.2176 130.824 29.5624 129.449 29.5624ZM130.066 26.0482C131.454 26.0482 132.725 25.7137 133.872 25.0481C135.019 24.3824 135.842 23.5789 136.338 22.6443V18.4713H132.088C130.159 18.4713 128.716 18.9335 127.751 19.8543C126.787 20.7785 126.305 21.8063 126.305 22.9409C126.305 23.9479 126.618 24.717 127.242 25.2515C127.862 25.7826 128.805 26.0482 130.066 26.0482Z" fill="black"/>
<path d="M146.075 29.1141V26.431L149.54 25.8344V9.38052L146.075 8.78389V6.08009H153.305L153.581 9.08048C154.318 7.98723 155.268 7.1423 156.429 6.54912C157.59 5.95249 158.937 5.6559 160.469 5.6559C161.999 5.6559 163.314 6.01112 164.413 6.72155C165.512 7.43199 166.338 8.4942 166.89 9.91507C167.613 8.608 168.57 7.57339 169.759 6.80777C170.95 6.04216 172.339 5.65935 173.926 5.65935C176.279 5.65935 178.135 6.46635 179.496 8.0769C180.856 9.68745 181.538 12.1119 181.538 15.3468V25.8413L185.003 26.4379V29.121H173.864V26.4379L177.329 25.8413V15.2985C177.329 13.0293 176.94 11.4222 176.162 10.4772C175.383 9.53226 174.226 9.06324 172.697 9.06324C171.236 9.06324 170.065 9.57709 169.177 10.6048C168.288 11.6325 167.778 12.9293 167.637 14.4881V25.8344L171.102 26.431V29.1141H159.984V26.431L163.449 25.8344V15.2985C163.449 13.1431 163.049 11.5636 162.247 10.5634C161.444 9.5633 160.287 9.06324 158.771 9.06324C157.497 9.06324 156.446 9.32534 155.626 9.84954C154.803 10.3737 154.173 11.1118 153.736 12.0636V25.8378L157.201 26.4344V29.1175H146.075V29.1141Z" fill="black"/>
</g>
<defs>
<clipPath id="clip0_169_1349">
<rect width="185" height="38.4153" fill="white"/>
</clipPath>
</defs>
</svg>
