<svg width="22" height="22" viewBox="0 0 22 22" fill="none" xmlns="http://www.w3.org/2000/svg">
<path fill-rule="evenodd" clip-rule="evenodd" d="M6.42742 0C2.87765 0 0 2.87765 0 6.42742V14.9436C0 18.4933 2.87765 21.371 6.42742 21.371H14.9436C18.4933 21.371 21.371 18.4933 21.371 14.9436V6.42742C21.371 2.87765 18.4933 0 14.9436 0H6.42742ZM1.5 6.42742C1.5 3.70608 3.70608 1.5 6.42742 1.5H14.9436C17.6649 1.5 19.871 3.70608 19.871 6.42742V14.9436C19.871 17.6649 17.6649 19.871 14.9436 19.871H6.42742C3.70608 19.871 1.5 17.6649 1.5 14.9436V6.42742ZM7.17742 10.6855C7.17742 8.74803 8.74803 7.17742 10.6855 7.17742C12.6229 7.17742 14.1935 8.74803 14.1935 10.6855C14.1935 11.6159 13.8239 12.5082 13.1661 13.1661C12.5082 13.8239 11.6159 14.1935 10.6855 14.1935C8.74803 14.1935 7.17742 12.6229 7.17742 10.6855ZM10.6855 5.67742C7.91961 5.67742 5.67742 7.91961 5.67742 10.6855C5.67742 13.4514 7.91961 15.6935 10.6855 15.6935C12.0137 15.6935 13.2875 15.1659 14.2267 14.2267C15.1659 13.2875 15.6935 12.0137 15.6935 10.6855C15.6935 7.91961 13.4514 5.67742 10.6855 5.67742ZM15.9435 6.42742C15.3913 6.42742 14.9435 5.9797 14.9435 5.42742V4.58871C14.9435 4.03642 15.3913 3.58871 15.9435 3.58871H16.7823C17.3345 3.58871 17.7823 4.03643 17.7823 4.58871V5.42742C17.7823 5.97971 17.3345 6.42742 16.7823 6.42742H15.9435Z" fill="white"/>
</svg>
